<svg width="767" height="613" viewBox="0 0 767 613" fill="none" xmlns="http://www.w3.org/2000/svg">
<g clip-path="url(#clip0)" filter="url(#filter0_d)">
<path d="M497 437C476.6 437 469.8 420 469.8 420C469.8 420 463 437 442.6 437C422.2 437 415.4 420 415.4 420C415.4 420 408.6 437 388.2 437C367.8 437 361 420 361 420C361 420 354.2 437 333.8 437C313.4 437 306.6 420 306.6 420C306.6 420 299.8 437 279.4 437C259 437 252.2 420 252.2 420C252.2 420 245.4 437 225 437V505H497V437Z" fill="#90CAF9"/>
<path d="M225 437C204.6 437 197.8 420 197.8 420C197.8 420 191 437 170.6 437C150.2 437 143.4 420 143.4 420C143.4 420 136.6 437 116.2 437C95.8 437 89 420 89 420C89 420 82.2 437 61.8 437C41.4 437 34.6 420 34.6 420C34.6 420 27.8 437 7.4 437C-13 437 -19.8 420 -19.8 420C-19.8 420 -26.6 437 -47 437V505H225V437Z" fill="#90CAF9"/>
<path d="M769 437C748.6 437 741.8 420 741.8 420C741.8 420 735 437 714.6 437C694.2 437 687.4 420 687.4 420C687.4 420 680.6 437 660.2 437C639.8 437 633 420 633 420C633 420 626.2 437 605.8 437C585.4 437 578.6 420 578.6 420C578.6 420 571.8 437 551.4 437C531 437 524.2 420 524.2 420C524.2 420 517.4 437 497 437V505H769V437Z" fill="#90CAF9"/>
<path d="M403 457C382.6 457 375.8 440 375.8 440C375.8 440 369 457 348.6 457C328.2 457 321.4 440 321.4 440C321.4 440 314.6 457 294.2 457C273.8 457 267 440 267 440C267 440 260.2 457 239.8 457C219.4 457 212.6 440 212.6 440C212.6 440 205.8 457 185.4 457C165 457 158.2 440 158.2 440C158.2 440 151.4 457 131 457V491H403V457Z" fill="#2196F3"/>
<path d="M675 458C654.6 458 647.8 441 647.8 441C647.8 441 641 458 620.6 458C600.2 458 593.4 441 593.4 441C593.4 441 586.6 458 566.2 458C545.8 458 539 441 539 441C539 441 532.2 458 511.8 458C491.4 458 484.6 441 484.6 441C484.6 441 477.8 458 457.4 458C437 458 430.2 441 430.2 441C430.2 441 423.4 458 403 458V492H675V458Z" fill="#2196F3"/>
<path fill-rule="evenodd" clip-rule="evenodd" d="M190.034 438.307C179.214 383.013 216.176 324.092 272.935 296.088C341.243 255.923 462.534 262.106 518.796 315.483C551.235 342.561 591.16 390.734 589.375 429.174C535.984 424.703 442.767 435.271 375.968 437.981C266.355 442.427 241.241 426.872 190.034 438.307V438.307Z" fill="#FFCC00"/>
<path fill-rule="evenodd" clip-rule="evenodd" d="M165.205 449.188C152.947 386.545 202.45 325.958 266.752 294.233C344.136 248.732 465.192 253.095 528.93 313.564C565.68 344.241 592.377 385.608 590.356 429.156C574.847 356.213 506.087 286.457 412.364 274.492C288.676 260.203 162.65 347.631 165.205 449.188Z" fill="black"/>
<path fill-rule="evenodd" clip-rule="evenodd" d="M54.5339 451.696C263.546 486.733 493.29 423.985 701.452 461.745C629.366 426.287 525.987 444.368 445.271 443.344C417.039 445.984 383.56 447.027 355.424 447.32C323.519 450.912 297.307 451.073 265.137 450.66C194.948 453.398 124.704 447.61 54.5339 451.696Z" fill="black"/>
<path fill-rule="evenodd" clip-rule="evenodd" d="M376.991 152.533C354.422 178.242 375.256 209.025 381.214 236.159C380.88 257.47 358.454 237.55 369.163 226.188C367.084 203.326 337.105 160.748 373.21 150.23L376.991 152.533Z" fill="black"/>
<path fill-rule="evenodd" clip-rule="evenodd" d="M460.395 248.377C498.588 232.664 512.427 197.725 532.149 169.485C518.816 152.707 573.271 142.435 546.56 162.553C526.342 190.623 513.15 222.866 483.449 245.785C476.901 249.434 467.905 251.406 460.395 248.377Z" fill="black"/>
<path fill-rule="evenodd" clip-rule="evenodd" d="M568.053 291.637C591.545 262.275 638.824 259.372 671.849 240.228C656.142 272.341 600.843 263.834 579.257 291.216C576.839 294.15 570.709 294.643 568.053 291.637Z" fill="black"/>
<path fill-rule="evenodd" clip-rule="evenodd" d="M598.719 373.815C640.108 349.348 693.001 374.838 737.7 360.278C714.959 386.197 674.434 365.488 643.485 368.937C628.799 371.199 613.836 379.035 598.719 373.815Z" fill="black"/>
<path fill-rule="evenodd" clip-rule="evenodd" d="M292.173 272.193C258.9 253.034 272.047 211.3 238.735 192.165C281.915 180.327 262.34 234.331 285.088 249.205C290.306 255.981 294.483 264.069 292.173 272.193Z" fill="black"/>
<path fill-rule="evenodd" clip-rule="evenodd" d="M110.862 186.728C130.453 217.377 174.712 233.507 188.088 267.318C195.749 273.221 239.824 291.857 212.727 291.696C173.117 269.302 151.088 232.636 115.253 207.164C110.789 201.137 107.964 193.642 110.862 186.728Z" fill="black"/>
<path fill-rule="evenodd" clip-rule="evenodd" d="M30.035 310.369C64.5299 291.916 104.281 310.843 138.43 319.79C152.968 321.393 193.253 323.501 184.222 337.014C147.499 334.027 114.244 320.157 79.5546 311.111C63.0623 310.436 46.3124 313.749 30.035 310.369Z" fill="black"/>
<path fill-rule="evenodd" clip-rule="evenodd" d="M29.3 410.027C51.834 388.857 88.2786 400.203 117.557 400.97C137.398 392.102 161.205 416.021 129.103 413.066C96.9071 405.704 60.9892 401.787 29.3893 410.051L29.3 410.029V410.027Z" fill="black"/>
<path d="M131 457C110.6 457 103.8 440 103.8 440C103.8 440 97 457 76.6 457C56.2 457 49.4 440 49.4 440C49.4 440 42.6 457 22.2 457C1.8 457 -5 440 -5 440C-5 440 -11.8 457 -32.2 457C-52.6 457 -59.4 440 -59.4 440C-59.4 440 -66.2 457 -86.6 457C-107 457 -113.8 440 -113.8 440C-113.8 440 -120.6 457 -141 457V491H131V457Z" fill="#2196F3"/>
<path d="M947 458C926.6 458 919.8 441 919.8 441C919.8 441 913 458 892.6 458C872.2 458 865.4 441 865.4 441C865.4 441 858.6 458 838.2 458C817.8 458 811 441 811 441C811 441 804.2 458 783.8 458C763.4 458 756.6 441 756.6 441C756.6 441 749.8 458 729.4 458C709 458 702.2 441 702.2 441C702.2 441 695.4 458 675 458V492H947V458Z" fill="#2196F3"/>
<path d="M368.938 275.5H375.313V300.938H368.938V275.5ZM423.125 333.313H324.313V324.063C324.313 317.125 317.938 314.813 317.938 314.813V310.188H439.063V314.813C439.063 314.813 423.125 321.75 423.125 327.034V333.313Z" fill="#455A64"/>
<path d="M324.312 326.375V337.938H423.125V326.375H324.312ZM419.938 317.125C419.938 318.408 418.519 319.438 416.75 319.438H410.375C408.606 319.438 407.188 318.408 407.188 317.125C407.188 315.842 408.606 314.812 410.375 314.812H416.75C418.519 314.812 419.938 315.842 419.938 317.125Z" fill="#263238"/>
<path d="M378.5 291.688H346.625L337.062 300.938V305.562H378.5V291.688ZM368.937 270.875H375.312L381.687 275.5V280.125H362.562V275.5L368.937 270.875ZM356.187 282.438H388.062V289.375H356.187V282.438Z" fill="#78909C"/>
<path d="M416.75 310.188V305.563L407.188 296.312H368.938V310.188H416.75Z" fill="#78909C"/>
<path d="M378.5 300.938H384.875V305.563H378.5V300.938ZM349.812 296.312H356.188V300.938H349.812V296.312ZM391.25 300.938H397.625V305.563H391.25V300.938Z" fill="#37474F"/>
<path d="M340.25 305.562H368.938V310.187H340.25V305.562Z" fill="#546E7A"/>
<path d="M388.063 291.688H368.938C362.563 291.688 362.563 296.312 362.563 296.312V310.187H368.938V296.312H388.063V291.688ZM413.387 302.311L436.573 298.572L435.177 294.053L409.192 298.246L413.387 302.311ZM342.768 295.418L325.18 291.78L323.439 296.225L338.666 299.386L342.768 295.418Z" fill="#546E7A"/>
<path d="M442.25 333.313C432.687 333.313 429.5 328.688 429.5 328.688C429.5 328.688 426.312 333.313 416.75 333.313C407.187 333.313 404 328.688 404 328.688C404 328.688 400.812 333.313 391.25 333.313C381.687 333.313 378.5 328.688 378.5 328.688C378.5 328.688 375.312 333.313 365.75 333.313C356.187 333.313 353 328.688 353 328.688C353 328.688 349.812 333.313 340.25 333.313C330.687 333.313 327.5 328.688 327.5 328.688C327.5 328.688 324.312 333.313 314.75 333.313V351.813H442.25V333.313Z" fill="#90CAF9"/>
<path d="M442.25 342.562C432.687 342.562 429.5 337.938 429.5 337.938C429.5 337.938 426.312 342.562 416.75 342.562C407.187 342.562 404 337.938 404 337.938C404 337.938 400.812 342.562 391.25 342.562C381.687 342.562 378.5 337.938 378.5 337.938C378.5 337.938 375.312 342.562 365.75 342.562C356.187 342.562 353 337.938 353 337.938C353 337.938 349.812 342.562 340.25 342.562C330.687 342.562 327.5 337.938 327.5 337.938C327.5 337.938 324.312 342.562 314.75 342.562V351.812H442.25V342.562Z" fill="#2196F3"/>
<path d="M195.533 366.84L195.245 361.44C195.245 361.152 196.421 360.552 198.773 359.64C201.173 358.68 202.541 358.2 202.877 358.2L204.677 358.992C204.965 358.992 205.349 358.992 205.829 358.992C206.357 358.944 207.149 358.896 208.205 358.848C210.605 358.8 211.781 358.752 211.733 358.704C215.141 359.376 216.845 360.024 216.845 360.648C216.845 361.944 216.989 363.768 217.277 366.12C217.565 368.424 217.997 369.888 218.573 370.512C218.573 370.608 218.261 371.064 217.637 371.88C217.013 372.696 216.701 373.464 216.701 374.184C216.701 374.424 217.037 374.688 217.709 374.976C218.381 375.264 218.717 375.48 218.717 375.624C219.197 380.472 219.557 383.112 219.797 383.544C220.085 383.976 220.589 384.192 221.309 384.192C221.501 384.192 221.669 383.904 221.813 383.328C222.341 381.12 222.749 379.872 223.037 379.584C223.565 374.304 223.997 371.472 224.333 371.088C225.773 370.32 226.493 369.552 226.493 368.784C226.493 368.352 226.253 367.896 225.773 367.416C225.293 366.888 225.053 366.576 225.053 366.48C225.053 366.336 225.341 365.376 225.917 363.6C226.493 361.776 226.901 360.744 227.141 360.504C227.429 360.216 229.277 359.664 232.685 358.848C236.093 357.984 238.229 357.552 239.093 357.552C244.997 357.792 247.949 358.32 247.949 359.136C247.037 362.64 246.581 364.656 246.581 365.184C246.581 365.712 246.605 365.976 246.653 365.976C247.085 365.976 247.301 368.496 247.301 373.536V374.832C247.301 374.928 247.109 375.072 246.725 375.264C245.525 375.984 244.925 376.872 244.925 377.928C244.925 377.976 245.285 378.288 246.005 378.864C246.725 379.392 247.085 379.8 247.085 380.088V380.16C246.605 382.368 246.365 386.76 246.365 393.336L246.437 397.944C246.677 398.472 246.797 399.36 246.797 400.608V401.4C246.797 401.544 246.461 401.952 245.789 402.624C245.165 403.296 244.853 403.776 244.853 404.064C244.853 404.688 245.549 405.096 246.941 405.288C246.941 406.392 247.445 408.168 248.453 410.616L248.957 411.84C248.957 412.272 247.565 412.992 244.781 414C242.045 415.008 239.861 415.512 238.229 415.512C237.653 415.512 236.405 415.104 234.485 414.288C232.565 413.52 231.605 412.944 231.605 412.56L232.757 406.368L232.469 397.296C232.469 397.248 232.757 396.912 233.333 396.288C233.957 395.616 234.269 395.064 234.269 394.632C234.269 394.152 234.125 393.768 233.837 393.48C233.597 393.144 233.333 392.928 233.045 392.832C232.757 392.688 232.613 392.592 232.613 392.544C232.613 391.968 232.901 391.008 233.477 389.664C233.477 388.416 233.381 386.256 233.189 383.184C233.045 380.064 232.877 378.504 232.685 378.504L231.461 379.08C231.317 379.224 230.669 381.72 229.517 386.568C228.365 391.368 227.789 393.888 227.789 394.128C227.789 394.368 227.909 394.776 228.149 395.352C228.389 395.928 228.509 396.336 228.509 396.576C228.509 396.768 228.365 397.008 228.077 397.296C227.837 397.536 227.525 397.8 227.141 398.088C226.757 398.376 226.517 398.568 226.421 398.664L226.061 399.816C226.061 400.152 226.277 400.56 226.709 401.04C227.141 401.472 227.357 401.76 227.357 401.904C227.357 402 226.997 402.552 226.277 403.56C225.605 404.52 224.645 405.528 223.397 406.584C222.197 407.64 221.117 408.168 220.157 408.168C219.245 408.168 217.637 407.832 215.333 407.16C213.029 406.44 211.877 405.888 211.877 405.504L211.229 402.12C211.229 402.072 211.397 401.976 211.733 401.832C212.789 401.4 213.317 400.8 213.317 400.032C213.317 399.504 212.813 399.144 211.805 398.952C210.845 398.76 210.365 398.52 210.365 398.232C210.365 395.064 209.525 390.048 207.845 383.184L207.053 379.8C207.005 379.8 206.981 379.8 206.981 379.8C206.981 379.752 206.957 379.728 206.909 379.728L206.045 380.16C205.709 380.496 205.541 382.872 205.541 387.288L205.757 397.872C206.285 399.504 206.549 400.584 206.549 401.112C206.549 401.592 206.525 401.856 206.477 401.904C205.325 402.72 204.749 403.584 204.749 404.496V404.784C204.749 405.024 204.941 405.264 205.325 405.504C205.757 405.696 206.021 405.84 206.117 405.936C206.213 406.128 206.261 406.368 206.261 406.656L206.189 408.456L206.549 411.336C206.549 411.96 206.405 412.296 206.117 412.344L203.381 413.568C201.509 414.384 200.333 414.792 199.853 414.792C199.373 414.792 198.173 414.456 196.253 413.784C194.381 413.112 193.445 412.584 193.445 412.2C193.445 412.104 193.613 411.432 193.949 410.184C195.005 406.248 195.533 402.792 195.533 399.816C195.533 399.768 195.269 399.6 194.741 399.312C194.213 399.024 193.949 398.808 193.949 398.664L195.461 391.104C195.317 390.288 195.245 386.4 195.245 379.44V375.912C195.245 375.864 195.413 375.744 195.749 375.552C196.661 374.88 197.117 374.304 197.117 373.824C197.117 373.296 197.045 372.888 196.901 372.6C196.757 372.312 196.565 372.072 196.325 371.88C196.133 371.688 195.917 371.52 195.677 371.376C195.485 371.232 195.317 371.136 195.173 371.088C195.077 370.992 195.101 370.728 195.245 370.296C195.437 369.864 195.533 368.712 195.533 366.84ZM254.54 384.48L254.036 383.328C254.036 382.992 255.14 381.816 257.348 379.8C259.604 377.736 261.02 376.584 261.596 376.344C265.244 375.576 267.716 375.192 269.012 375.192C269.156 375.192 269.804 375.456 270.956 375.984C272.108 376.512 272.804 376.824 273.044 376.92C273.284 376.968 273.74 377.424 274.412 378.288C275.084 379.104 275.42 379.608 275.42 379.8C275.18 381.144 274.964 381.816 274.772 381.816C271.748 381.96 269.732 382.32 268.724 382.896C268.244 383.136 267.284 384.048 265.844 385.632C264.452 387.168 263.54 388.368 263.108 389.232C262.724 390.048 262.532 392.712 262.532 397.224C263.924 397.848 264.62 398.544 264.62 399.312C264.092 401.568 263.828 402.864 263.828 403.2C263.828 403.488 264.02 404.04 264.404 404.856C264.788 405.672 265.172 406.272 265.556 406.656C266.276 407.04 266.852 407.232 267.284 407.232C267.764 407.232 268.076 407.16 268.22 407.016C269.372 405.864 269.948 403.896 269.948 401.112C269.948 400.488 269.9 399.84 269.804 399.168C268.94 398.352 268.508 397.44 268.508 396.432C268.508 396.288 268.724 396.024 269.156 395.64C269.588 395.208 269.804 394.752 269.804 394.272C269.804 393.792 269.612 393.264 269.228 392.688C268.844 392.112 268.46 391.68 268.076 391.392C267.692 391.056 267.5 390.84 267.5 390.744C267.5 390.12 268.244 388.968 269.732 387.288C271.268 385.608 272.348 384.768 272.972 384.768H273.98C278.06 384.768 280.1 385.032 280.1 385.56C279.86 386.856 279.74 387.6 279.74 387.792C279.74 387.984 280.172 388.896 281.036 390.528C281.9 392.16 282.332 393.72 282.332 395.208C281.084 396.216 280.46 396.96 280.46 397.44C280.46 397.872 280.7 398.304 281.18 398.736C281.66 399.168 281.9 399.408 281.9 399.456C281.9 399.888 281.708 400.872 281.324 402.408C280.94 403.896 280.748 405.048 280.748 405.864C280.748 406.68 279.596 408.24 277.292 410.544C275.084 412.656 273.62 413.712 272.9 413.712H272.828C272.588 413.52 272.204 413.424 271.676 413.424L270.884 413.496C270.164 413.496 269.636 413.976 269.3 414.936C269.156 415.368 268.988 415.656 268.796 415.8C268.652 415.992 268.076 416.088 267.068 416.088L260.948 415.584C259.748 415.248 258.38 414.432 256.844 413.136C255.356 411.84 254.612 411.024 254.612 410.688C254.612 410.64 254.852 410.328 255.332 409.752C255.812 409.128 256.052 408.672 256.052 408.384C256.052 407.904 255.74 407.448 255.116 407.016L252.596 407.376C252.356 407.376 252.092 406.752 251.804 405.504C251.084 402.816 250.724 399.12 250.724 394.416C250.724 393.744 251.276 392.016 252.38 389.232C253.484 386.448 254.204 384.888 254.54 384.552V384.48ZM301.483 376.2L300.187 379.152C300.187 379.44 300.307 379.824 300.547 380.304C300.787 380.736 301.003 380.952 301.195 380.952C302.683 380.472 303.427 380.064 303.427 379.728C303.427 379.632 303.979 379.272 305.083 378.648C306.187 378.024 306.739 377.328 306.739 376.56C306.739 376.368 306.643 376.104 306.451 375.768C306.259 375.432 306.163 375.072 306.163 374.688C306.163 374.304 306.307 373.728 306.595 372.96L306.955 371.88C306.955 371.208 306.619 370.392 305.947 369.432C305.275 368.472 304.651 367.992 304.075 367.992C303.499 367.992 302.875 368.256 302.203 368.784C301.531 369.264 301.171 369.624 301.123 369.864V370.008L301.483 376.2ZM301.339 397.44L301.051 401.472C301.051 402.384 301.171 403.2 301.411 403.92C301.699 404.64 301.987 405 302.275 405C302.659 405 303.355 404.88 304.363 404.64C305.419 404.352 306.115 404.064 306.451 403.776C306.931 403.296 307.435 402.48 307.963 401.328C308.491 400.128 308.755 399.312 308.755 398.88C308.755 398.4 308.371 397.704 307.603 396.792C306.835 395.88 306.451 395.304 306.451 395.064L307.027 392.616C307.027 392.088 306.595 391.584 305.731 391.104C304.915 390.576 304.291 390.312 303.859 390.312C303.427 390.312 302.851 390.816 302.131 391.824C301.459 392.784 301.123 393.408 301.123 393.696L301.339 396.792V397.44ZM320.563 403.92C319.507 404.544 318.979 405.144 318.979 405.72C318.979 406.248 319.315 406.992 319.987 407.952C319.987 408.288 319.411 408.984 318.259 410.04C317.155 411.096 316.171 411.936 315.307 412.56C314.443 413.136 313.051 413.832 311.131 414.648C309.259 415.464 307.843 415.872 306.883 415.872C305.971 415.872 304.459 415.488 302.347 414.72C300.235 414 299.107 413.64 298.963 413.64C298.819 413.64 298.339 414.072 297.523 414.936C296.707 415.848 296.059 416.304 295.579 416.304C293.947 416.304 291.859 415.536 289.315 414C286.819 412.464 285.571 411.408 285.571 410.832C285.571 410.736 285.739 410.304 286.075 409.536C287.035 407.328 287.515 404.352 287.515 400.608L287.371 397.368C287.371 397.32 287.539 397.224 287.875 397.08C288.979 396.648 289.531 396.048 289.531 395.28C289.531 394.512 289.123 393.792 288.307 393.12C287.539 392.448 287.155 392.064 287.155 391.968V391.896C287.491 390.84 287.659 389.016 287.659 386.424L287.443 377.28V376.272C287.443 375.984 287.251 375.552 286.867 374.976C286.531 374.4 286.363 373.944 286.363 373.608C286.363 373.224 286.675 372.624 287.299 371.808C287.923 370.992 288.235 370.32 288.235 369.792C288.235 369.264 287.659 368.064 286.507 366.192C285.403 364.32 284.851 363.36 284.851 363.312C284.851 362.688 285.811 361.824 287.731 360.72C289.651 359.568 291.115 358.992 292.123 358.992C294.235 357.936 295.843 357.408 296.947 357.408C297.379 357.408 298.051 358.224 298.963 359.856C299.923 361.488 300.475 362.304 300.619 362.304C300.763 362.304 301.435 361.944 302.635 361.224C306.139 359.112 308.707 358.056 310.339 358.056C312.019 358.056 314.059 358.8 316.459 360.288C318.859 361.728 320.059 362.88 320.059 363.744L319.123 364.68C318.499 365.304 318.187 365.928 318.187 366.552C318.187 367.08 318.643 367.464 319.555 367.704C320.515 367.896 320.995 368.04 320.995 368.136C320.995 372.696 319.891 376.08 317.683 378.288C317.155 378.816 316.339 379.44 315.235 380.16C314.179 380.88 313.339 381.552 312.715 382.176C312.139 382.752 311.851 383.424 311.851 384.192C312.043 384.912 312.283 385.272 312.571 385.272C312.667 385.272 313.219 385.008 314.227 384.48C315.283 383.904 316.195 383.616 316.963 383.616C317.251 383.616 317.875 384.192 318.835 385.344C319.843 386.448 320.827 388.056 321.787 390.168C322.795 392.28 323.299 394.08 323.299 395.568C323.299 397.056 323.131 398.592 322.795 400.176C322.459 401.76 322.291 402.672 322.291 402.912C322.291 403.104 322.171 403.272 321.931 403.416C321.355 403.752 320.899 403.92 320.563 403.92ZM343.051 398.808L343.267 395.208C343.267 394.872 343.219 394.704 343.123 394.704C342.499 394.704 341.419 395.088 339.883 395.856C338.395 396.624 337.651 397.296 337.651 397.872C338.035 398.496 338.227 399 338.227 399.384C338.227 399.72 338.155 399.96 338.011 400.104C337.435 400.344 337.147 400.728 337.147 401.256C337.147 401.736 337.459 402.312 338.083 402.984C338.755 403.608 339.307 403.92 339.739 403.92C340.171 403.92 340.915 403.512 341.971 402.696C343.027 401.832 343.555 401.208 343.555 400.824L343.483 400.68C343.195 400.392 343.051 399.768 343.051 398.808ZM354.859 395.712L355.219 401.184C355.219 401.616 355.171 401.832 355.075 401.832C353.491 402.792 352.699 403.92 352.699 405.216C352.699 405.6 353.059 405.936 353.779 406.224L354.859 406.656L355.435 410.472L356.731 412.848C356.731 412.944 356.515 413.136 356.083 413.424C354.835 414.336 353.875 414.792 353.203 414.792C352.099 414.792 350.851 415.2 349.459 416.016L348.811 416.376H348.667C347.899 416.376 346.363 415.944 344.059 415.08L342.907 414.648C342.811 414.552 342.763 414.336 342.763 414L342.979 410.616V410.328L342.043 410.04C341.899 410.04 341.635 410.304 341.251 410.832C340.627 411.648 339.115 412.848 336.715 414.432L335.491 415.224C334.099 415.224 332.707 414.792 331.315 413.928C329.971 413.064 328.939 412.248 328.219 411.48C327.499 410.664 327.139 410.208 327.139 410.112C327.139 410.016 327.235 409.896 327.427 409.752C327.907 409.32 328.147 408.864 328.147 408.384C328.147 407.52 327.283 406.872 325.555 406.44L324.763 406.224C324.763 404.064 324.955 401.976 325.339 399.96C325.771 397.944 326.179 396.48 326.563 395.568L327.211 394.128C327.787 393.36 329.611 392.16 332.683 390.528C335.755 388.896 338.251 388.08 340.171 388.08C340.315 388.08 340.555 388.248 340.891 388.584C341.275 388.872 341.587 389.016 341.827 389.016C342.115 389.016 342.451 388.896 342.835 388.656C343.651 388.224 344.059 387.864 344.059 387.576C344.059 386.856 343.723 385.92 343.051 384.768C342.523 384.24 340.819 383.832 337.939 383.544L336.499 383.4C335.539 383.4 334.195 383.76 332.467 384.48C330.739 385.152 329.827 385.488 329.731 385.488C329.635 385.488 329.395 385.2 329.011 384.624C328.627 384.048 328.435 383.64 328.435 383.4C328.435 383.112 328.867 382.128 329.731 380.448C330.643 378.72 331.267 377.736 331.603 377.496C332.179 377.16 333.955 376.584 336.931 375.768C339.907 374.952 342.043 374.544 343.339 374.544C345.451 375.936 347.299 376.824 348.883 377.208C350.515 377.544 352.075 378.264 353.563 379.368C355.051 380.424 355.795 381.48 355.795 382.536C355.795 382.632 355.555 383.136 355.075 384.048C354.643 384.96 354.427 385.704 354.427 386.28C354.427 386.856 354.547 387.36 354.787 387.792L355.219 388.44C355.219 390.84 355.147 392.208 355.003 392.544C354.475 393.6 354.211 394.176 354.211 394.272L354.859 395.28V395.712ZM373.391 389.592L373.175 396.864C373.175 398.448 373.247 399.504 373.391 400.032C373.391 400.176 373.031 400.536 372.311 401.112C371.591 401.688 371.231 402.12 371.231 402.408V402.84C371.231 403.512 371.423 403.848 371.807 403.848C372.671 403.512 373.223 403.344 373.463 403.344C373.751 403.344 373.895 403.392 373.895 403.488C374.135 406.944 374.543 408.96 375.119 409.536C376.703 410.592 377.495 411.528 377.495 412.344C377.495 412.536 377.063 413.016 376.199 413.784C375.335 414.552 374.639 415.08 374.111 415.368C373.055 415.896 371.207 416.352 368.567 416.736L367.199 416.88C367.055 416.88 366.455 416.592 365.399 416.016C364.343 415.488 363.599 415.224 363.167 415.224C362.783 415.224 362.159 414.768 361.295 413.856C360.479 412.896 360.071 412.2 360.071 411.768V411.624C360.647 410.568 360.935 406.896 360.935 400.608V399.456C360.935 399.36 361.175 399.12 361.655 398.736C362.183 398.352 362.447 397.944 362.447 397.512C362.447 397.08 362.303 396.768 362.015 396.576C361.727 396.384 361.439 396.216 361.151 396.072C360.863 395.928 360.719 395.808 360.719 395.712C361.055 394.368 361.223 392.496 361.223 390.096C361.223 387.648 361.175 386.376 361.079 386.28C360.983 386.184 360.695 386.136 360.215 386.136C359.783 386.136 359.447 386.184 359.207 386.28C358.967 386.328 358.775 386.4 358.631 386.496C358.535 386.544 358.463 386.592 358.415 386.64C358.367 386.688 358.247 386.712 358.055 386.712C357.863 386.712 357.527 386.496 357.047 386.064C356.615 385.632 356.399 385.344 356.399 385.2C356.399 384.624 356.759 383.256 357.479 381.096C358.199 378.936 358.631 377.784 358.775 377.64C358.919 377.496 359.183 377.424 359.567 377.424L361.007 377.496C361.295 377.496 361.487 377.448 361.583 377.352C361.679 377.256 361.727 376.608 361.727 375.408C361.727 372.816 361.439 370.464 360.863 368.352L360.503 367.272C360.503 366.792 361.559 365.856 363.671 364.464C365.831 363.072 367.367 362.376 368.279 362.376C371.687 362.472 373.535 362.664 373.823 362.952C373.871 363 373.895 363.144 373.895 363.384L372.527 373.392C372.575 375.36 372.743 376.488 373.031 376.776C373.367 376.968 373.895 377.064 374.615 377.064C375.335 377.064 376.463 376.56 377.999 375.552C378.191 375.552 378.503 375.888 378.935 376.56C379.415 377.232 379.655 377.76 379.655 378.144C379.655 378.528 379.223 379.584 378.359 381.312C377.495 382.992 376.535 384.336 375.479 385.344C375.431 385.392 375.095 385.416 374.471 385.416H372.671C371.231 385.416 370.511 385.56 370.511 385.848C370.511 386.712 370.703 387.312 371.087 387.648C371.519 387.984 371.975 388.152 372.455 388.152C372.935 388.152 373.199 388.2 373.247 388.296C373.343 388.344 373.391 388.776 373.391 389.592ZM396.946 389.592L396.73 396.864C396.73 398.448 396.802 399.504 396.946 400.032C396.946 400.176 396.586 400.536 395.866 401.112C395.146 401.688 394.786 402.12 394.786 402.408V402.84C394.786 403.512 394.978 403.848 395.362 403.848C396.226 403.512 396.778 403.344 397.018 403.344C397.306 403.344 397.45 403.392 397.45 403.488C397.69 406.944 398.098 408.96 398.674 409.536C400.258 410.592 401.05 411.528 401.05 412.344C401.05 412.536 400.618 413.016 399.754 413.784C398.89 414.552 398.194 415.08 397.666 415.368C396.61 415.896 394.762 416.352 392.122 416.736L390.754 416.88C390.61 416.88 390.01 416.592 388.954 416.016C387.898 415.488 387.154 415.224 386.722 415.224C386.338 415.224 385.714 414.768 384.85 413.856C384.034 412.896 383.626 412.2 383.626 411.768V411.624C384.202 410.568 384.49 406.896 384.49 400.608V399.456C384.49 399.36 384.73 399.12 385.21 398.736C385.738 398.352 386.002 397.944 386.002 397.512C386.002 397.08 385.858 396.768 385.57 396.576C385.282 396.384 384.994 396.216 384.706 396.072C384.418 395.928 384.274 395.808 384.274 395.712C384.61 394.368 384.778 392.496 384.778 390.096C384.778 387.648 384.73 386.376 384.634 386.28C384.538 386.184 384.25 386.136 383.77 386.136C383.338 386.136 383.002 386.184 382.762 386.28C382.522 386.328 382.33 386.4 382.186 386.496C382.09 386.544 382.018 386.592 381.97 386.64C381.922 386.688 381.802 386.712 381.61 386.712C381.418 386.712 381.082 386.496 380.602 386.064C380.17 385.632 379.954 385.344 379.954 385.2C379.954 384.624 380.314 383.256 381.034 381.096C381.754 378.936 382.186 377.784 382.33 377.64C382.474 377.496 382.738 377.424 383.122 377.424L384.562 377.496C384.85 377.496 385.042 377.448 385.138 377.352C385.234 377.256 385.282 376.608 385.282 375.408C385.282 372.816 384.994 370.464 384.418 368.352L384.058 367.272C384.058 366.792 385.114 365.856 387.226 364.464C389.386 363.072 390.922 362.376 391.834 362.376C395.242 362.472 397.09 362.664 397.378 362.952C397.426 363 397.45 363.144 397.45 363.384L396.082 373.392C396.13 375.36 396.298 376.488 396.586 376.776C396.922 376.968 397.45 377.064 398.17 377.064C398.89 377.064 400.018 376.56 401.554 375.552C401.746 375.552 402.058 375.888 402.49 376.56C402.97 377.232 403.21 377.76 403.21 378.144C403.21 378.528 402.778 379.584 401.914 381.312C401.05 382.992 400.09 384.336 399.034 385.344C398.986 385.392 398.65 385.416 398.026 385.416H396.226C394.786 385.416 394.066 385.56 394.066 385.848C394.066 386.712 394.258 387.312 394.642 387.648C395.074 387.984 395.53 388.152 396.01 388.152C396.49 388.152 396.754 388.2 396.802 388.296C396.898 388.344 396.946 388.776 396.946 389.592ZM418.556 379.728L417.908 388.368C417.908 391.44 418.028 394.824 418.268 398.52C418.556 402.216 418.7 404.16 418.7 404.352C418.7 404.496 418.508 404.784 418.124 405.216C417.788 405.648 417.62 406.08 417.62 406.512C417.62 406.896 418.124 407.952 419.132 409.68C420.188 411.408 420.716 412.584 420.716 413.208C420.716 413.304 420.452 413.472 419.924 413.712C418.436 414.336 417.596 414.816 417.404 415.152C417.02 415.776 415.988 416.256 414.308 416.592L413.444 416.808C412.484 416.808 410.828 416.472 408.476 415.8C406.124 415.176 404.948 414.744 404.948 414.504L405.452 409.68C405.452 409.632 405.572 409.44 405.812 409.104C406.436 408.096 406.748 407.28 406.748 406.656C406.748 406.608 406.532 406.224 406.1 405.504C405.668 404.784 405.452 404.256 405.452 403.92C405.452 403.536 405.476 403.296 405.524 403.2C405.62 403.104 405.86 402.984 406.244 402.84C406.676 402.648 406.94 402.504 407.036 402.408C407.42 401.64 407.612 401.112 407.612 400.824C407.612 400.392 406.772 399.84 405.092 399.168C405.236 398.592 405.308 397.608 405.308 396.216L405.164 392.328C405.164 392.136 405.452 391.8 406.028 391.32C406.076 391.272 406.1 390.6 406.1 389.304L405.812 375.984C405.812 375.792 406.124 375.456 406.748 374.976C407.372 374.448 407.684 373.848 407.684 373.176C407.684 372.84 407.324 372.552 406.604 372.312C405.932 372.072 405.596 371.904 405.596 371.808C405.596 369.024 405.476 366.744 405.236 364.968C404.996 363.192 404.876 362.208 404.876 362.016C404.876 361.776 404.972 361.56 405.164 361.368C405.404 361.128 406.652 360.456 408.908 359.352C411.164 358.248 412.796 357.696 413.804 357.696C414.86 357.696 416.108 357.816 417.548 358.056C418.988 358.248 419.708 358.488 419.708 358.776L418.124 363.456L418.052 364.536L418.556 374.616C418.556 375.192 418.532 375.504 418.484 375.552C417.14 376.656 416.468 377.52 416.468 378.144C416.468 378.768 416.804 379.176 417.476 379.368C418.196 379.56 418.556 379.68 418.556 379.728ZM438.651 385.992C438.555 385.896 438.507 385.584 438.507 385.056C438.507 384.48 438.723 383.64 439.155 382.536C439.155 382.152 438.819 381.96 438.147 381.96L436.995 382.104C436.179 382.488 435.411 383.52 434.691 385.2C434.835 386.112 434.907 387.024 434.907 387.936C434.907 388.8 434.787 389.352 434.547 389.592C434.595 389.832 434.667 390.12 434.763 390.456C434.907 390.792 435.315 391.248 435.987 391.824C436.659 392.4 437.523 392.688 438.579 392.688C438.915 392.688 439.107 392.376 439.155 391.752C439.203 391.128 439.251 390.408 439.299 389.592C439.347 388.776 439.467 388.272 439.659 388.08C439.899 387.84 440.019 387.624 440.019 387.432C440.019 387 439.563 386.52 438.651 385.992ZM450.891 402.912L451.467 408.528C451.467 408.816 451.395 409.104 451.251 409.392C451.155 409.68 450.627 410.352 449.667 411.408C448.755 412.464 448.227 413.208 448.083 413.64C447.987 414.024 447.147 414.504 445.563 415.08C444.027 415.704 442.995 416.016 442.467 416.016C441.987 416.016 441.699 415.968 441.603 415.872C441.555 415.776 441.435 415.512 441.243 415.08C440.859 413.976 440.451 413.424 440.019 413.424C439.443 413.424 438.843 413.784 438.219 414.504C437.643 415.224 437.331 415.584 437.283 415.584C434.499 415.584 431.931 415.104 429.579 414.144C428.715 413.808 428.283 413.52 428.283 413.28C428.283 412.704 426.891 411.192 424.107 408.744L422.667 407.52C422.283 407.184 421.971 405.648 421.731 402.912C421.539 400.176 421.443 397.92 421.443 396.144C421.443 394.32 421.467 393.384 421.515 393.336C421.563 393.288 421.875 393.12 422.451 392.832C423.027 392.496 423.411 392.232 423.603 392.04C423.795 391.848 423.891 391.584 423.891 391.248L423.747 390.384C422.787 389.424 422.307 388.92 422.307 388.872C422.307 388.44 422.835 387.096 423.891 384.84C424.947 382.536 425.859 381 426.627 380.232C432.339 376.92 436.443 375.264 438.939 375.264C444.027 375.312 446.883 375.648 447.507 376.272C449.763 379.392 450.891 382.368 450.891 385.2C449.739 385.728 448.995 386.136 448.659 386.424C448.371 386.712 448.227 387.168 448.227 387.792C448.227 388.416 448.515 388.728 449.091 388.728L450.675 388.44C450.819 388.44 450.891 388.488 450.891 388.584C450.891 392.472 449.763 395.544 447.507 397.8C446.883 398.424 445.299 399.024 442.755 399.6C440.259 400.128 438.675 400.392 438.003 400.392C437.811 400.392 437.283 400.008 436.419 399.24C435.555 398.472 435.075 398.088 434.979 398.088C434.931 398.088 434.691 398.328 434.259 398.808C433.827 399.288 433.611 399.696 433.611 400.032C434.379 402.336 435.291 404.016 436.347 405.072C436.731 405.456 437.595 405.648 438.939 405.648C442.971 405.648 445.947 404.688 447.867 402.768C448.443 402 448.827 401.616 449.019 401.616C449.259 401.616 449.619 401.736 450.099 401.976C450.627 402.168 450.891 402.36 450.891 402.552V402.912ZM466.985 398.088L467.057 396.792C467.057 396.408 466.961 396.216 466.769 396.216C465.521 396.216 464.633 396.432 464.105 396.864C463.577 397.296 463.241 397.512 463.097 397.512C462.953 397.512 462.545 397.464 461.873 397.368C461.201 397.272 460.865 397.176 460.865 397.08L460.649 396.288C460.313 395.952 459.329 395.784 457.697 395.784C456.113 395.736 455.201 395.592 454.961 395.352C454.193 394.632 453.809 393.384 453.809 391.608C453.809 389.832 454.121 387.624 454.745 384.984C455.369 382.344 455.897 380.784 456.329 380.304C456.809 379.824 458.177 379.128 460.433 378.216C462.689 377.304 463.841 376.824 463.889 376.776C464.465 376.008 464.873 375.504 465.113 375.264C467.897 374.496 470.321 374.112 472.385 374.112C474.977 374.304 476.393 374.4 476.633 374.4C476.777 374.4 477.137 374.832 477.713 375.696C479.297 378.192 480.089 380.184 480.089 381.672C480.089 381.912 479.777 382.44 479.153 383.256C478.577 384.024 478.217 384.408 478.073 384.408L477.425 383.904C476.081 383.04 474.497 382.608 472.673 382.608C471.809 382.608 470.417 383.208 468.497 384.408C466.625 385.56 465.689 386.64 465.689 387.648C465.929 388.848 466.289 389.448 466.769 389.448C468.401 388.248 469.505 387.648 470.081 387.648C470.705 387.648 471.929 387.912 473.753 388.44C475.625 388.968 476.705 389.376 476.993 389.664C480.929 393.6 482.897 396.192 482.897 397.44C482.897 398.64 482.585 400.464 481.961 402.912C481.385 405.312 480.953 406.512 480.665 406.512H480.593C479.489 406.512 478.601 406.872 477.929 407.592C477.737 407.784 477.641 408.048 477.641 408.384C477.641 408.672 477.833 409.032 478.217 409.464C478.649 409.896 478.865 410.136 478.865 410.184C478.769 411 477.401 412.176 474.761 413.712C472.169 415.2 470.057 415.944 468.425 415.944C468.233 415.944 467.969 415.752 467.633 415.368C467.345 414.984 466.961 414.792 466.481 414.792C466.049 414.792 465.521 415.008 464.897 415.44L463.961 416.016C461.897 416.016 460.025 415.656 458.345 414.936C456.713 414.264 455.681 413.664 455.249 413.136C454.721 412.656 454.241 411.96 453.809 411.048C453.425 410.136 453.233 409.44 453.233 408.96L453.953 408.096C455.441 406.416 456.185 404.856 456.185 403.416C456.185 403.272 456.497 403.032 457.121 402.696C457.745 402.36 458.105 402.192 458.201 402.192C458.345 402.192 458.657 402.456 459.137 402.984C460.529 404.616 462.017 405.432 463.601 405.432C464.033 405.432 464.489 405.336 464.969 405.144C465.497 404.904 465.953 404.784 466.337 404.784C467.441 404.784 468.425 404.448 469.289 403.776C470.105 402.96 470.609 401.832 470.801 400.392C470.801 399.912 470.321 399.456 469.361 399.024C468.401 398.592 467.633 398.376 467.057 398.376C467.009 398.376 466.985 398.28 466.985 398.088ZM515.295 396.072L514.935 405.288C514.935 407.592 515.127 409.224 515.511 410.184C516.663 412.536 517.239 413.808 517.239 414C517.239 414.192 516.855 414.456 516.087 414.792C515.367 415.128 515.007 415.512 515.007 415.944C515.007 416.424 513.639 416.664 510.903 416.664C508.215 416.664 506.775 416.496 506.583 416.16C506.439 415.872 505.599 415.2 504.063 414.144C502.575 413.088 501.831 412.344 501.831 411.912V411.84L502.119 406.44C502.119 406.056 502.743 405.384 503.991 404.424C504.135 404.28 504.207 403.992 504.207 403.56V403.2C504.207 403.008 503.871 402.744 503.199 402.408C502.575 402.072 502.263 401.76 502.263 401.472C502.263 401.136 502.407 400.296 502.695 398.952C502.983 397.56 503.127 396.36 503.127 395.352C503.127 394.296 502.839 393.24 502.263 392.184C502.263 391.608 502.719 390.696 503.631 389.448C504.543 388.2 504.999 387.528 504.999 387.432C504.999 387.144 504.471 386.808 503.415 386.424C502.743 386.424 501.951 386.952 501.039 388.008C500.127 389.016 499.383 390.048 498.807 391.104L497.943 392.616C497.703 393.576 497.583 394.92 497.583 396.648L498.015 404.64C498.015 404.736 497.775 405.024 497.295 405.504C496.815 405.984 496.575 406.32 496.575 406.512C496.575 406.704 496.623 406.848 496.719 406.944C497.247 407.472 497.511 408.768 497.511 410.832V411.336C497.511 412.056 496.527 412.848 494.559 413.712C492.639 414.576 491.631 415.056 491.535 415.152C491.439 415.248 490.935 415.296 490.023 415.296L485.559 415.08C485.079 415.08 484.575 414.816 484.047 414.288C484.047 413.712 484.407 412.32 485.127 410.112L485.487 408.96C485.583 408.576 485.631 407.904 485.631 406.944L485.415 397.584C485.415 396.432 485.439 395.808 485.487 395.712C485.583 395.616 485.871 395.424 486.351 395.136C487.263 394.608 487.719 394.128 487.719 393.696L487.287 392.544C487.143 392.208 486.567 391.848 485.559 391.464L485.991 382.464L485.055 374.76L485.847 373.752C485.895 373.704 485.919 373.512 485.919 373.176L485.703 369.432L485.847 367.992C485.847 367.368 485.631 366.12 485.199 364.248C484.767 362.376 484.551 361.416 484.551 361.368C484.551 360.984 485.487 360.144 487.359 358.848C489.231 357.552 490.551 356.904 491.319 356.904C492.087 356.904 493.455 357.048 495.423 357.336C497.439 357.576 498.447 357.864 498.447 358.2L497.727 365.04V365.472C496.767 366.336 496.287 366.888 496.287 367.128C496.287 367.368 496.383 367.584 496.575 367.776C496.767 367.968 496.983 368.136 497.223 368.28C497.847 368.664 498.159 368.88 498.159 368.928C497.871 369.696 497.583 370.992 497.295 372.816C497.007 374.64 496.863 375.768 496.863 376.2V381.816C497.295 382.152 497.631 382.32 497.871 382.32C498.831 382.32 499.767 380.736 500.679 377.568C503.271 376.512 505.071 375.984 506.079 375.984C508.671 376.416 510.303 376.8 510.975 377.136C511.647 377.424 512.607 378.312 513.855 379.8C515.151 381.24 515.799 382.296 515.799 382.968V384.624C515.799 387.936 515.871 389.88 516.015 390.456V390.528C516.015 390.624 515.727 390.744 515.151 390.888C514.575 391.032 514.239 391.152 514.143 391.248C513.375 392.352 512.991 393.072 512.991 393.408C512.991 393.888 513.687 394.176 515.079 394.272C515.223 394.416 515.295 395.016 515.295 396.072ZM520.223 365.976L520.799 362.016C520.799 361.776 520.751 361.368 520.655 360.792V360.72C520.655 360.432 520.943 360.024 521.519 359.496C522.095 358.92 523.055 358.368 524.399 357.84C525.791 357.264 527.327 356.976 529.007 356.976C530.495 357.264 531.239 357.576 531.239 357.912V357.984C530.999 358.944 530.879 359.808 530.879 360.576C530.879 361.344 530.951 361.8 531.095 361.944C531.239 362.088 531.527 362.232 531.959 362.376C532.391 362.52 532.655 362.64 532.751 362.736C532.895 363.36 532.967 364.008 532.967 364.68C532.967 365.304 532.895 365.832 532.751 366.264C532.607 366.696 531.935 367.488 530.735 368.64C529.583 369.792 528.815 370.368 528.431 370.368C526.895 370.368 525.455 370.056 524.111 369.432C522.767 368.808 521.783 368.184 521.159 367.56C520.535 366.888 520.223 366.36 520.223 365.976ZM532.175 393.48L531.815 405.144C531.815 407.4 531.935 408.792 532.175 409.32C533.135 411.432 533.615 412.704 533.615 413.136C533.615 413.568 533.591 413.808 533.543 413.856C533.495 413.904 532.943 414.096 531.887 414.432C528.479 415.632 526.583 416.304 526.199 416.448C525.815 416.64 525.287 416.736 524.615 416.736C523.991 416.736 522.863 416.4 521.231 415.728C519.599 415.056 518.783 414.528 518.783 414.144L519.791 405.432C519.791 405.288 520.103 405.048 520.727 404.712C521.351 404.376 521.663 404.04 521.663 403.704C521.663 403.368 521.327 402.96 520.655 402.48C520.031 402 519.719 401.712 519.719 401.616V401.544C520.007 400.44 520.151 398.904 520.151 396.936L519.647 388.368C519.647 388.272 519.815 388.032 520.151 387.648C520.487 387.264 520.655 386.712 520.655 385.992C520.655 385.272 520.367 384.192 519.791 382.752C519.263 381.264 518.999 380.328 518.999 379.944C518.999 379.656 520.079 378.84 522.239 377.496C524.399 376.152 525.911 375.48 526.775 375.48C531.239 375.672 533.471 376.008 533.471 376.488C533.471 377.4 533.183 379.056 532.607 381.456C532.079 383.808 531.815 385.416 531.815 386.28C531.815 387.096 531.863 387.888 531.959 388.656C530.663 389.472 530.015 390.408 530.015 391.464C530.591 391.992 531.263 392.256 532.031 392.256C532.127 392.256 532.175 392.664 532.175 393.48ZM553.85 386.712C553.658 386.712 553.058 387.336 552.05 388.584C551.09 389.784 550.49 390.6 550.25 391.032C550.058 391.416 549.962 392.88 549.962 395.424V397.08C549.962 397.32 550.178 397.632 550.61 398.016C551.09 398.4 551.33 398.688 551.33 398.88C551.33 399.408 550.85 400.152 549.89 401.112C549.698 401.304 549.602 402.384 549.602 404.352C549.602 406.32 549.698 407.304 549.89 407.304C550.562 407.304 551.258 407.112 551.978 406.728C552.698 406.296 553.274 405.864 553.706 405.432L554.282 404.784C554.522 404.544 554.786 403.968 555.074 403.056C555.362 402.096 555.506 401.448 555.506 401.112L554.714 397.728C554.714 397.536 554.882 397.08 555.218 396.36C555.602 395.592 555.794 394.968 555.794 394.488C555.794 393.96 555.578 393.528 555.146 393.192C554.714 392.808 554.498 392.472 554.498 392.184L555.578 387.792C555.578 387.552 555.338 387.312 554.858 387.072C554.426 386.832 554.09 386.712 553.85 386.712ZM539.378 393.84C539.378 393.12 538.73 392.4 537.434 391.68C537.53 390.864 537.578 389.64 537.578 388.008C537.578 383.784 537.17 380.808 536.354 379.08V379.008C536.354 378.672 537.074 377.904 538.514 376.704C540.002 375.456 541.058 374.712 541.682 374.472C542.306 374.184 543.674 374.04 545.786 374.04C547.898 374.04 548.954 374.232 548.954 374.616V374.688C548.474 376.272 548.234 378.84 548.234 382.392C548.666 382.92 549.002 383.184 549.242 383.184C552.746 378.48 554.954 376.128 555.866 376.128C557.066 376.128 558.578 376.296 560.402 376.632C562.274 376.92 563.546 377.424 564.218 378.144C564.218 378.816 564.194 379.32 564.146 379.656C567.218 384.216 568.754 387.528 568.754 389.592C567.794 393.048 567.314 396.624 567.314 400.32C567.314 400.512 566.834 400.728 565.874 400.968C564.962 401.208 564.506 401.472 564.506 401.76C564.506 402.384 564.77 402.984 565.298 403.56C565.874 404.136 566.162 404.496 566.162 404.64C566.162 404.784 565.946 405.216 565.514 405.936C564.17 408.288 562.61 410.352 560.834 412.128C560.066 412.848 558.098 413.712 554.93 414.72C551.81 415.776 550.178 416.376 550.034 416.52C549.938 416.664 549.89 417.384 549.89 418.68L549.962 421.128C549.962 421.272 549.314 421.752 548.018 422.568C547.634 422.952 547.442 423.336 547.442 423.72C547.442 424.104 547.514 424.416 547.658 424.656C547.802 424.896 547.922 425.016 548.018 425.016C549.314 425.016 549.962 425.112 549.962 425.304C549.962 427.752 550.178 429.528 550.61 430.632C550.61 431.064 549.914 432.096 548.522 433.728L547.874 434.592C547.682 434.784 547.274 435 546.65 435.24C545.018 435.864 544.202 436.344 544.202 436.68C544.202 436.824 543.506 436.896 542.114 436.896C540.77 436.896 539.282 436.8 537.65 436.608C536.066 436.464 535.274 436.248 535.274 435.96C535.274 435.096 535.634 433.776 536.354 432C537.074 430.224 537.434 429.264 537.434 429.12C537.434 429.024 537.242 428.808 536.858 428.472C536.474 428.136 536.282 427.872 536.282 427.68V427.536C537.098 425.664 537.506 421.632 537.506 415.44V412.056C537.506 411.144 537.53 410.664 537.578 410.616C538.202 410.376 538.514 409.608 538.514 408.312C538.514 408.024 538.322 406.2 537.938 402.84C537.554 399.48 537.362 397.128 537.362 395.784C537.362 395.736 537.698 395.496 538.37 395.064C539.042 394.632 539.378 394.224 539.378 393.84Z" fill="black"/>
</g>
<defs>
<filter id="filter0_d" x="0" y="0" width="767" height="621" filterUnits="userSpaceOnUse" color-interpolation-filters="sRGB">
<feFlood flood-opacity="0" result="BackgroundImageFix"/>
<feColorMatrix in="SourceAlpha" type="matrix" values="0 0 0 0 0 0 0 0 0 0 0 0 0 0 0 0 0 0 127 0"/>
<feOffset dy="4"/>
<feGaussianBlur stdDeviation="2"/>
<feColorMatrix type="matrix" values="0 0 0 0 0 0 0 0 0 0 0 0 0 0 0 0 0 0 0.25 0"/>
<feBlend mode="normal" in2="BackgroundImageFix" result="effect1_dropShadow"/>
<feBlend mode="normal" in="SourceGraphic" in2="effect1_dropShadow" result="shape"/>
</filter>
<clipPath id="clip0">
<rect width="759" height="613" fill="white" transform="translate(4)"/>
</clipPath>
</defs>
</svg>
