<svg xmlns="http://www.w3.org/2000/svg" width="48" height="48"><path d="M21 8h2v11h-2zm0 0M38 33H7v-4c0-3-2-4-2-4v-2h38v2s-5 3-5 5.285V33zm0 0" fill="#455a64"/><path d="M7 30v5h31v-5zm0 0M37 26c0 .555-.445 1-1 1h-2c-.555 0-1-.445-1-1 0-.555.445-1 1-1h2c.555 0 1 .445 1 1zm0 0" fill="#263238"/><path d="M24 15H14l-3 4v2h13zm0 0M21 6h2l2 2v2h-6V8zm0 0M17 11h10v3H17zm0 0" fill="#78909c"/><path d="M36 23v-2l-3-4H21v6zm0 0" fill="#78909c"/><path d="M24 19h2v2h-2zm0 0M15 17h2v2h-2zm0 0M28 19h2v2h-2zm0 0" fill="#37474f"/><path d="M12 21h9v2h-9zm0 0" fill="#546e7a"/><path d="M27 15h-6c-2 0-2 2-2 2v6h2v-6h6zm0 0M34.945 19.594l7.274-1.617-.438-1.954-8.152 1.813zm0 0M12.79 16.613L7.272 15.04l-.546 1.922 4.777 1.367zm0 0" fill="#546e7a"/><path d="M44 33c-3 0-4-2-4-2s-1 2-4 2-4-2-4-2-1 2-4 2-4-2-4-2-1 2-4 2-4-2-4-2-1 2-4 2-4-2-4-2-1 2-4 2v8h40zm0 0" fill="#90caf9"/><path d="M44 37c-3 0-4-2-4-2s-1 2-4 2-4-2-4-2-1 2-4 2-4-2-4-2-1 2-4 2-4-2-4-2-1 2-4 2-4-2-4-2-1 2-4 2v4h40zm0 0" fill="#2196f3"/></svg>